<svg width="24" height="24" xmlns="http://www.w3.org/2000/svg" fill-rule="evenodd" viewBox="0 0 24 24" clip-rule="evenodd"><path d="M16.272 5.451c-.176-.45-.272-.939-.272-1.451 0-2.208 1.792-4 4-4s4 1.792 4 4-1.792 4-4 4c-1.339 0-2.525-.659-3.251-1.67l-7.131 3.751c.246.591.382 1.239.382 1.919 0 .681-.136 1.33-.384 1.922l7.131 3.751c.726-1.013 1.913-1.673 3.253-1.673 2.208 0 4 1.792 4 4s-1.792 4-4 4-4-1.792-4-4c0-.51.096-.999.27-1.447l-7.129-3.751c-.9 1.326-2.419 2.198-4.141 2.198-2.76 0-5-2.24-5-5s2.24-5 5-5c1.723 0 3.243.873 4.143 2.201l7.129-3.75zm3.728 11.549c1.656 0 3 1.344 3 3s-1.344 3-3 3-3-1.344-3-3 1.344-3 3-3zm-15-9c2.208 0 4 1.792 4 4s-1.792 4-4 4-4-1.792-4-4 1.792-4 4-4zm15-7c1.656 0 3 1.344 3 3s-1.344 3-3 3-3-1.344-3-3 1.344-3 3-3z"/></svg>
