<svg xmlns="http://www.w3.org/2000/svg" width="24" height="24" viewBox="0 0 24 24">
    <path d="M9 13v6c0 .552-.448 1-1 1s-1-.448-1-1v-6c0-.552.448-1 1-1s1 .448 1 1zm7-1c-.552 0-1 .448-1 1v6c0 .552.448 1 1 1s1-.448 1-1v-6c0-.552-.448-1-1-1zm-4 0c-.552 0-1 .448-1 1v6c0 .552.448 1 1 1s1-.448 1-1v-6c0-.552-.448-1-1-1zm4.333-8.623c-.882-.184-1.373-1.409-1.189-2.291l-5.203-1.086c-.184.883-1.123 1.81-2.004 1.625l-5.528-1.099-.409 1.958 19.591 4.099.409-1.958-5.667-1.248zm4.667 4.623v16h-18v-16h18zm-2 14v-12h-14v12h14z"/>
</svg>
