<svg width="228" height="53" viewBox="0 0 228 53" fill="none" xmlns="http://www.w3.org/2000/svg">
    <g clip-path="url(#clip0)">
        <path d="M45.2334 8.5C46.7467 11.3971 47.6602 14.5565 47.9218 17.7979C48.1833 21.0394 47.7877 24.2993 46.7577 27.3916C45.7276 30.484 44.0832 33.3481 41.9183 35.8205C39.7535 38.293 37.1105 40.3253 34.1405 41.8014C31.1704 43.2775 27.9314 44.1686 24.6082 44.4237C21.2851 44.6788 17.9431 44.2929 14.7728 43.2882C11.6026 42.2834 8.66628 40.6794 6.13155 38.5678C3.59683 36.4561 1.51332 33.8782 0 30.9811L45.2334 8.5Z" fill="url(#paint0_linear)"/>
        <path d="M56.024 10.264H67.07C68.61 10.264 70.066 10.404 71.438 10.684C72.81 10.964 74 11.454 75.008 12.154C76.044 12.826 76.856 13.75 77.444 14.926C78.06 16.074 78.368 17.53 78.368 19.294C78.368 21.03 78.088 22.486 77.528 23.662C76.968 24.838 76.198 25.776 75.218 26.476C74.238 27.176 73.076 27.68 71.732 27.988C70.388 28.268 68.932 28.408 67.364 28.408H62.576V40H56.024V10.264ZM62.576 22.864H66.944C67.532 22.864 68.092 22.808 68.624 22.696C69.184 22.584 69.674 22.402 70.094 22.15C70.542 21.87 70.892 21.506 71.144 21.058C71.424 20.582 71.564 19.994 71.564 19.294C71.564 18.538 71.382 17.936 71.018 17.488C70.682 17.012 70.234 16.648 69.674 16.396C69.142 16.144 68.54 15.99 67.868 15.934C67.196 15.85 66.552 15.808 65.936 15.808H62.576V22.864ZM79.2451 19.588H85.5451V40H79.2451V19.588ZM78.7411 13.162C78.7411 12.154 79.0911 11.3 79.7911 10.6C80.5191 9.872 81.3871 9.508 82.3951 9.508C83.4031 9.508 84.2571 9.872 84.9571 10.6C85.6851 11.3 86.0491 12.154 86.0491 13.162C86.0491 14.17 85.6851 15.038 84.9571 15.766C84.2571 16.466 83.4031 16.816 82.3951 16.816C81.3871 16.816 80.5191 16.466 79.7911 15.766C79.0911 15.038 78.7411 14.17 78.7411 13.162ZM108.971 38.278C108.971 42.142 107.991 45.068 106.031 47.056C104.099 49.072 101.145 50.08 97.1692 50.08C95.3492 50.08 93.5572 49.87 91.7932 49.45C90.0292 49.058 88.4052 48.274 86.9212 47.098L90.4072 41.89C91.3872 42.702 92.4092 43.346 93.4732 43.822C94.5652 44.298 95.7552 44.536 97.0432 44.536C98.9752 44.536 100.389 44.06 101.285 43.108C102.209 42.184 102.671 40.994 102.671 39.538V37.564H102.587C101.859 38.544 100.949 39.244 99.8572 39.664C98.7932 40.056 97.7852 40.252 96.8332 40.252C95.3212 40.252 93.9492 40 92.7172 39.496C91.4852 38.964 90.4212 38.236 89.5252 37.312C88.6572 36.36 87.9852 35.24 87.5092 33.952C87.0332 32.664 86.7952 31.25 86.7952 29.71C86.7952 28.366 87.0052 27.05 87.4252 25.762C87.8732 24.474 88.4892 23.34 89.2732 22.36C90.0852 21.38 91.0652 20.596 92.2132 20.008C93.3612 19.392 94.6632 19.084 96.1192 19.084C97.0152 19.084 97.8272 19.182 98.5552 19.378C99.3112 19.574 99.9832 19.826 100.571 20.134C101.159 20.442 101.663 20.792 102.083 21.184C102.503 21.548 102.839 21.912 103.091 22.276H103.175V19.588H108.971V38.278ZM93.0952 29.668C93.0952 30.34 93.2212 30.984 93.4732 31.6C93.7252 32.188 94.0752 32.72 94.5232 33.196C94.9992 33.644 95.5312 34.008 96.1192 34.288C96.7352 34.568 97.4072 34.708 98.1352 34.708C98.8352 34.708 99.4932 34.568 100.109 34.288C100.725 34.008 101.257 33.644 101.705 33.196C102.181 32.72 102.545 32.188 102.797 31.6C103.049 30.984 103.175 30.34 103.175 29.668C103.175 28.996 103.049 28.366 102.797 27.778C102.545 27.162 102.181 26.63 101.705 26.182C101.257 25.706 100.725 25.328 100.109 25.048C99.4932 24.768 98.8352 24.628 98.1352 24.628C97.4072 24.628 96.7352 24.768 96.1192 25.048C95.5312 25.328 94.9992 25.706 94.5232 26.182C94.0752 26.63 93.7252 27.162 93.4732 27.778C93.2212 28.366 93.0952 28.996 93.0952 29.668ZM135.421 19.588H141.469V22.36H141.553C141.749 21.968 142.029 21.576 142.393 21.184C142.757 20.792 143.191 20.442 143.695 20.134C144.199 19.826 144.773 19.574 145.417 19.378C146.061 19.182 146.761 19.084 147.517 19.084C148.945 19.084 150.205 19.378 151.297 19.966C152.417 20.554 153.257 21.478 153.817 22.738C154.545 21.422 155.427 20.484 156.463 19.924C157.499 19.364 158.773 19.084 160.285 19.084C161.657 19.084 162.805 19.322 163.729 19.798C164.681 20.246 165.423 20.876 165.955 21.688C166.515 22.472 166.907 23.41 167.131 24.502C167.383 25.566 167.509 26.714 167.509 27.946V40H161.209V28.114C161.209 27.162 160.999 26.35 160.579 25.678C160.187 24.978 159.473 24.628 158.437 24.628C157.709 24.628 157.093 24.754 156.589 25.006C156.113 25.23 155.721 25.552 155.413 25.972C155.133 26.392 154.923 26.882 154.783 27.442C154.671 28.002 154.615 28.59 154.615 29.206V40H148.315V29.206C148.315 28.842 148.301 28.394 148.273 27.862C148.245 27.33 148.147 26.826 147.979 26.35C147.811 25.874 147.531 25.468 147.139 25.132C146.775 24.796 146.229 24.628 145.501 24.628C144.689 24.628 144.031 24.782 143.527 25.09C143.023 25.37 142.631 25.762 142.351 26.266C142.099 26.742 141.931 27.288 141.847 27.904C141.763 28.52 141.721 29.164 141.721 29.836V40H135.421V19.588ZM188.766 36.472C187.758 37.76 186.484 38.754 184.944 39.454C183.404 40.154 181.808 40.504 180.156 40.504C178.588 40.504 177.104 40.252 175.704 39.748C174.332 39.244 173.128 38.53 172.092 37.606C171.084 36.654 170.286 35.52 169.698 34.204C169.11 32.888 168.816 31.418 168.816 29.794C168.816 28.17 169.11 26.7 169.698 25.384C170.286 24.068 171.084 22.948 172.092 22.024C173.128 21.072 174.332 20.344 175.704 19.84C177.104 19.336 178.588 19.084 180.156 19.084C181.612 19.084 182.928 19.336 184.104 19.84C185.308 20.344 186.316 21.072 187.128 22.024C187.968 22.948 188.612 24.068 189.06 25.384C189.508 26.7 189.732 28.17 189.732 29.794V31.768H175.116C175.368 32.972 175.914 33.938 176.754 34.666C177.594 35.366 178.63 35.716 179.862 35.716C180.898 35.716 181.766 35.492 182.466 35.044C183.194 34.568 183.824 33.966 184.356 33.238L188.766 36.472ZM183.432 27.484C183.46 26.42 183.11 25.51 182.382 24.754C181.654 23.998 180.716 23.62 179.568 23.62C178.868 23.62 178.252 23.732 177.72 23.956C177.188 24.18 176.726 24.474 176.334 24.838C175.97 25.174 175.676 25.58 175.452 26.056C175.256 26.504 175.144 26.98 175.116 27.484H183.432ZM191.044 19.588H197.092V22.36H197.176C197.372 21.968 197.652 21.576 198.016 21.184C198.38 20.792 198.814 20.442 199.318 20.134C199.822 19.826 200.396 19.574 201.04 19.378C201.684 19.182 202.384 19.084 203.14 19.084C204.736 19.084 206.024 19.336 207.004 19.84C207.984 20.316 208.74 20.988 209.272 21.856C209.832 22.724 210.21 23.746 210.406 24.922C210.602 26.098 210.7 27.372 210.7 28.744V40H204.4V30.004C204.4 29.416 204.372 28.814 204.316 28.198C204.288 27.554 204.162 26.966 203.938 26.434C203.742 25.902 203.42 25.468 202.972 25.132C202.552 24.796 201.936 24.628 201.124 24.628C200.312 24.628 199.654 24.782 199.15 25.09C198.646 25.37 198.254 25.762 197.974 26.266C197.722 26.742 197.554 27.288 197.47 27.904C197.386 28.52 197.344 29.164 197.344 29.836V40H191.044V19.588ZM226.543 24.628H220.999V31.432C220.999 31.992 221.027 32.51 221.083 32.986C221.139 33.434 221.265 33.826 221.461 34.162C221.657 34.498 221.951 34.764 222.343 34.96C222.763 35.128 223.309 35.212 223.981 35.212C224.317 35.212 224.751 35.184 225.283 35.128C225.843 35.044 226.263 34.876 226.543 34.624V39.874C225.843 40.126 225.115 40.294 224.359 40.378C223.603 40.462 222.861 40.504 222.133 40.504C221.069 40.504 220.089 40.392 219.193 40.168C218.297 39.944 217.513 39.594 216.841 39.118C216.169 38.614 215.637 37.97 215.245 37.186C214.881 36.402 214.699 35.45 214.699 34.33V24.628H210.667V19.588H214.699V13.54H220.999V19.588H226.543V24.628Z" fill="#0D1442"/>
        <path d="M132.906 38.278C132.906 42.142 131.926 45.068 129.966 47.056C128.034 49.072 125.08 50.08 121.104 50.08C119.284 50.08 117.492 49.87 115.728 49.45C113.964 49.058 112.34 48.274 110.856 47.098L114.342 41.89C115.322 42.702 116.344 43.346 117.408 43.822C118.5 44.298 119.69 44.536 120.978 44.536C122.91 44.536 124.324 44.06 125.22 43.108C126.144 42.184 126.606 40.994 126.606 39.538V37.564H126.522C125.794 38.544 124.884 39.244 123.792 39.664C122.728 40.056 121.72 40.252 120.768 40.252C119.256 40.252 117.884 40 116.652 39.496C115.42 38.964 114.356 38.236 113.46 37.312C112.592 36.36 111.92 35.24 111.444 33.952C110.968 32.664 110.73 31.25 110.73 29.71C110.73 28.366 110.94 27.05 111.36 25.762C111.808 24.474 112.424 23.34 113.208 22.36C114.02 21.38 115 20.596 116.148 20.008C117.296 19.392 118.598 19.084 120.054 19.084C120.95 19.084 121.762 19.182 122.49 19.378C123.246 19.574 123.918 19.826 124.506 20.134C125.094 20.442 125.598 20.792 126.018 21.184C126.438 21.548 126.774 21.912 127.026 22.276H127.11V19.588H132.906V38.278ZM117.03 29.668C117.03 30.34 117.156 30.984 117.408 31.6C117.66 32.188 118.01 32.72 118.458 33.196C118.934 33.644 119.466 34.008 120.054 34.288C120.67 34.568 121.342 34.708 122.07 34.708C122.77 34.708 123.428 34.568 124.044 34.288C124.66 34.008 125.192 33.644 125.64 33.196C126.116 32.72 126.48 32.188 126.732 31.6C126.984 30.984 127.11 30.34 127.11 29.668C127.11 28.996 126.984 28.366 126.732 27.778C126.48 27.162 126.116 26.63 125.64 26.182C125.192 25.706 124.66 25.328 124.044 25.048C123.428 24.768 122.77 24.628 122.07 24.628C121.342 24.628 120.67 24.768 120.054 25.048C119.466 25.328 118.934 25.706 118.458 26.182C118.01 26.63 117.66 27.162 117.408 27.778C117.156 28.366 117.03 28.996 117.03 29.668Z" fill="#0D1442" fill-opacity="0.58"/>
    </g>
    <defs>
        <linearGradient id="paint0_linear" x1="9.92501" y1="-1.70178" x2="32.1248" y2="24.4777" gradientUnits="userSpaceOnUse">
            <stop stop-color="#1B21DD"/>
            <stop offset="1" stop-color="#24348C"/>
        </linearGradient>
        <clipPath id="clip0">
            <rect width="228" height="53" fill="white"/>
        </clipPath>
    </defs>
</svg>
