<svg xmlns="http://www.w3.org/2000/svg" fill="none" viewBox="0 0 260 55"><defs/><path fill="#0D1442" d="M64.032 1.35199H78.76c2.0533 0 3.9946.18667 5.824.56 1.8293.37334 3.416 1.02667 4.76 1.96 1.3813.896 2.464 2.128 3.248 3.696.8213 1.53067 1.232 3.47201 1.232 5.82401 0 2.3147-.3733 4.256-1.12 5.824-.7467 1.568-1.7733 2.8187-3.08 3.752-1.3067.9333-2.856 1.6053-4.648 2.016-1.792.3733-3.7334.56-5.824.56h-6.384V41h-8.736V1.35199zM72.768 18.152h5.824c.784 0 1.5307-.0747 2.24-.224.7467-.1493 1.4-.392 1.96-.728.5973-.3733 1.064-.8587 1.4-1.456.3733-.6347.56-1.4187.56-2.352 0-1.008-.2427-1.8107-.728-2.408-.448-.6347-1.0453-1.12001-1.792-1.45601-.7093-.336-1.512-.54133-2.408-.616-.896-.112-1.7547-.168-2.576-.168h-4.48V18.152zM94.9934 13.784h8.3996V41h-8.3996V13.784zm-.672-8.56801c0-1.344.4667-2.48266 1.4-3.416.9707-.970663 2.128-1.455996 3.472-1.455996 1.3436 0 2.4826.485333 3.4156 1.455996.971.93334 1.456 2.072 1.456 3.416 0 1.344-.485 2.50134-1.456 3.472-.933.93334-2.072 1.40001-3.4156 1.40001-1.344 0-2.5013-.46667-3.472-1.40001-.9333-.97066-1.4-2.128-1.4-3.472zM134.628 38.704c0 5.152-1.306 9.0533-3.92 11.704-2.576 2.688-6.514 4.032-11.816 4.032-2.426 0-4.816-.28-7.168-.84-2.352-.5227-4.517-1.568-6.496-3.136l4.648-6.944c1.307 1.0827 2.67 1.9413 4.088 2.576 1.456.6347 3.043.952 4.76.952 2.576 0 4.462-.6347 5.656-1.904 1.232-1.232 1.848-2.8187 1.848-4.76v-2.632h-.112c-.97 1.3067-2.184 2.24-3.64 2.8-1.418.5227-2.762.784-4.032.784-2.016 0-3.845-.336-5.488-1.008-1.642-.7093-3.061-1.68-4.256-2.912-1.157-1.2693-2.053-2.7627-2.688-4.48-.634-1.7173-.952-3.6027-.952-5.656 0-1.792.28-3.5467.84-5.264.598-1.7173 1.419-3.2293 2.464-4.536 1.083-1.3067 2.39-2.352 3.92-3.136 1.531-.8213 3.267-1.232 5.208-1.232 1.195 0 2.278.1307 3.248.392 1.008.2613 1.904.5973 2.688 1.008.784.4107 1.456.8773 2.016 1.4.56.4853 1.008.9707 1.344 1.456h.112v-3.584h7.728v24.92zm-21.168-11.48c0 .896.168 1.7547.504 2.576.336.784.803 1.4933 1.4 2.128.635.5973 1.344 1.0827 2.128 1.456.822.3733 1.718.56 2.688.56.934 0 1.811-.1867 2.632-.56.822-.3733 1.531-.8587 2.128-1.456.635-.6347 1.12-1.344 1.456-2.128.336-.8213.504-1.68.504-2.576 0-.896-.168-1.736-.504-2.52-.336-.8213-.821-1.5307-1.456-2.128-.597-.6347-1.306-1.1387-2.128-1.512-.821-.3733-1.698-.56-2.632-.56-.97 0-1.866.1867-2.688.56-.784.3733-1.493.8773-2.128 1.512-.597.5973-1.064 1.3067-1.4 2.128-.336.784-.504 1.624-.504 2.52zM137.982 13.784h8.064v3.696h.112c.261-.5227.634-1.0453 1.12-1.568.485-.5227 1.064-.9893 1.736-1.4.672-.4107 1.437-.7467 2.296-1.008.858-.2613 1.792-.392 2.8-.392 1.904 0 3.584.392 5.04 1.176 1.493.784 2.613 2.016 3.36 3.696.97-1.7547 2.146-3.0053 3.528-3.752 1.381-.7467 3.08-1.12 5.096-1.12 1.829 0 3.36.3173 4.592.952 1.269.5973 2.258 1.4373 2.968 2.52.746 1.0453 1.269 2.296 1.568 3.752.336 1.4187.504 2.9493.504 4.592V41h-8.4V25.152c0-1.2693-.28-2.352-.84-3.248-.523-.9333-1.475-1.4-2.856-1.4-.971 0-1.792.168-2.464.504-.635.2987-1.158.728-1.568 1.288-.374.56-.654 1.2133-.84 1.96-.15.7467-.224 1.5307-.224 2.352V41h-8.4V26.608c0-.4853-.019-1.0827-.056-1.792-.038-.7093-.168-1.3813-.392-2.016s-.598-1.176-1.12-1.624c-.486-.448-1.214-.672-2.184-.672-1.083 0-1.96.2053-2.632.616-.672.3733-1.195.896-1.568 1.568-.336.6347-.56 1.3627-.672 2.184-.112.8213-.168 1.68-.168 2.576V41h-8.4V13.784zM209.108 36.296c-1.344 1.7173-3.042 3.0427-5.096 3.976-2.053.9333-4.181 1.4-6.384 1.4-2.09 0-4.069-.336-5.936-1.008-1.829-.672-3.434-1.624-4.816-2.856-1.344-1.2693-2.408-2.7813-3.192-4.536-.784-1.7547-1.176-3.7147-1.176-5.88s.392-4.1253 1.176-5.88c.784-1.7547 1.848-3.248 3.192-4.48 1.382-1.2693 2.987-2.24 4.816-2.912 1.867-.672 3.846-1.008 5.936-1.008 1.942 0 3.696.336 5.264 1.008 1.606.672 2.95 1.6427 4.032 2.912 1.12 1.232 1.979 2.7253 2.576 4.48.598 1.7547.896 3.7147.896 5.88v2.632h-19.488c.336 1.6053 1.064 2.8933 2.184 3.864 1.12.9333 2.502 1.4 4.144 1.4 1.382 0 2.539-.2987 3.472-.896.971-.6347 1.811-1.4373 2.52-2.408l5.88 4.312zm-7.112-11.984c.038-1.4187-.429-2.632-1.4-3.64-.97-1.008-2.221-1.512-3.752-1.512-.933 0-1.754.1493-2.464.448-.709.2987-1.325.6907-1.848 1.176-.485.448-.877.9893-1.176 1.624-.261.5973-.41 1.232-.448 1.904h11.088zM212.145 13.784h8.064v3.696h.112c.261-.5227.634-1.0453 1.12-1.568.485-.5227 1.064-.9893 1.736-1.4.672-.4107 1.437-.7467 2.296-1.008.858-.2613 1.792-.392 2.8-.392 2.128 0 3.845.336 5.152 1.008 1.306.6347 2.314 1.5307 3.024 2.688.746 1.1573 1.25 2.52 1.512 4.088.261 1.568.392 3.2667.392 5.096V41h-8.4V27.672c0-.784-.038-1.5867-.112-2.408-.038-.8587-.206-1.6427-.504-2.352-.262-.7093-.691-1.288-1.288-1.736-.56-.448-1.382-.672-2.464-.672-1.083 0-1.96.2053-2.632.616-.672.3733-1.195.896-1.568 1.568-.336.6347-.56 1.3627-.672 2.184-.112.8213-.168 1.68-.168 2.576V41h-8.4V13.784zM259.477 20.504h-7.392v9.072c0 .7467.037 1.4373.112 2.072.074.5973.242 1.12.504 1.568.261.448.653.8027 1.176 1.064.56.224 1.288.336 2.184.336.448 0 1.026-.0373 1.736-.112.746-.112 1.306-.336 1.68-.672v7c-.934.336-1.904.56-2.912.672-1.008.112-1.998.168-2.968.168-1.419 0-2.726-.1493-3.92-.448-1.195-.2987-2.24-.7653-3.136-1.4-.896-.672-1.606-1.5307-2.128-2.576-.486-1.0453-.728-2.3147-.728-3.808V20.504h-5.376v-6.72h5.376V5.71999h8.4V13.784h7.392v6.72z"/><path fill="url(#paint0_linear)" d="M49.1726.112671c1.6395 3.093509 2.6292 6.467179 2.9125 9.928429.2834 3.4612-.1452 6.9422-1.2611 10.2442-1.116 3.302-2.8975 6.3603-5.2429 9.0004-2.3454 2.6401-5.2087 4.8101-8.4264 6.3864-3.2178 1.5762-6.7269 2.5277-10.3272 2.8001-3.6002.2724-7.221-.1396-10.6556-1.2125-3.4346-1.0729-6.61571-2.7857-9.36181-5.0405C4.064 29.9644 1.80676 27.2116.167236 24.1181L49.1726.112671z"/><defs>
        <linearGradient id="paint0_linear" x1="10.9199" x2="34.5664" y1="-10.7808" y2="17.5118" gradientUnits="userSpaceOnUse"><stop style="stop-color:#1B21DD"/><stop offset="1%" style="stop-color:#24348C"/></linearGradient>
    </defs>
</svg>
