<svg width="270" height="88" viewBox="0 0 270 88" fill="none" xmlns="http://www.w3.org/2000/svg">
<path d="M41.832 28.88C43.08 31.424 43.704 34.256 43.704 37.376C43.704 40.496 43.08 43.328 41.832 45.872C40.584 48.368 38.976 50.36 37.008 51.848C33.024 54.92 28.896 56.456 24.624 56.456H15.624V64.592C15.624 65.696 15.576 66.536 15.48 67.112C15.432 67.64 15.216 68.264 14.832 68.984C14.16 70.28 12.288 70.928 9.216 70.928C5.856 70.928 3.888 70.04 3.312 68.264C3.024 67.448 2.88 66.2 2.88 64.52V24.56C2.88 23.456 2.904 22.64 2.952 22.112C3.048 21.536 3.288 20.888 3.672 20.168C4.344 18.872 6.216 18.224 9.288 18.224H24.696C28.92 18.224 33.024 19.76 37.008 22.832C38.976 24.32 40.584 26.336 41.832 28.88ZM24.696 43.712C26.136 43.712 27.552 43.184 28.944 42.128C30.336 41.072 31.032 39.488 31.032 37.376C31.032 35.264 30.336 33.68 28.944 32.624C27.552 31.52 26.112 30.968 24.624 30.968H15.624V43.712H24.696ZM44.8059 39.392C44.8059 38.288 44.8299 37.472 44.8779 36.944C44.9739 36.368 45.1899 35.72 45.5259 35C46.1979 33.752 48.0699 33.128 51.1419 33.128C53.4459 33.128 55.0779 33.536 56.0379 34.352C56.8539 35.024 57.2859 36.056 57.3339 37.448C57.3819 37.928 57.4059 38.624 57.4059 39.536V64.736C57.4059 65.84 57.3579 66.68 57.2619 67.256C57.2139 67.784 56.9979 68.408 56.6139 69.128C55.9899 70.376 54.1419 71 51.0699 71C48.0459 71 46.1979 70.352 45.5259 69.056C45.1899 68.336 44.9739 67.712 44.8779 67.184C44.8299 66.656 44.8059 65.816 44.8059 64.664V39.392ZM56.6139 26.072C56.2779 26.744 55.6539 27.224 54.7419 27.512C53.8299 27.8 52.6059 27.944 51.0699 27.944C49.5819 27.944 48.3819 27.8 47.4699 27.512C46.5579 27.224 45.9099 26.72 45.5259 26C45.1899 25.28 44.9739 24.656 44.8779 24.128C44.8299 23.552 44.8059 22.712 44.8059 21.608C44.8059 20.504 44.8299 19.688 44.8779 19.16C44.9739 18.584 45.1899 17.96 45.5259 17.288C46.1979 15.992 48.0699 15.344 51.1419 15.344C54.1659 15.344 55.9899 15.992 56.6139 17.288C56.9979 18.008 57.2139 18.656 57.2619 19.232C57.3579 19.76 57.4059 20.576 57.4059 21.68C57.4059 22.784 57.3579 23.624 57.2619 24.2C57.2139 24.728 56.9979 25.352 56.6139 26.072ZM85.0455 66.248C83.2215 68.648 80.3175 69.848 76.3335 69.848C72.3495 69.848 68.6055 68.024 65.1015 64.376C61.6455 60.68 59.9175 56.384 59.9175 51.488C59.9175 46.592 61.6695 42.296 65.1735 38.6C68.6775 34.904 72.5175 33.056 76.6935 33.056C78.3255 33.056 79.8135 33.368 81.1575 33.992C82.5015 34.568 83.4135 35.12 83.8935 35.648C84.4215 36.128 84.8295 36.584 85.1175 37.016C85.2615 35.672 85.7415 34.664 86.5575 33.992C87.4215 33.272 88.7895 32.912 90.6615 32.912C92.5335 32.912 93.9015 33.056 94.7655 33.344C95.6295 33.632 96.2295 34.136 96.5655 34.856C96.9495 35.528 97.1655 36.128 97.2135 36.656C97.3095 37.184 97.3575 38 97.3575 39.104V68.912C97.3575 74.432 95.4375 78.872 91.5975 82.232C87.7575 85.64 83.4375 87.344 78.6375 87.344C74.9895 87.344 71.5095 86.456 68.1975 84.68C64.8855 82.904 63.2295 81.296 63.2295 79.856C63.2295 77.984 63.9495 76.328 65.3895 74.888C66.3015 73.88 66.9975 73.184 67.4775 72.8C68.0055 72.416 68.6055 72.224 69.2775 72.224C69.9495 72.224 70.6455 72.512 71.3655 73.088C73.6695 74.864 76.1655 75.752 78.8535 75.752C80.6775 75.752 82.1655 75.032 83.3175 73.592C84.4695 72.152 85.0455 70.424 85.0455 68.408V66.248ZM72.2295 51.56C72.2295 53.096 72.8295 54.488 74.0295 55.736C75.2775 56.984 76.7655 57.608 78.4935 57.608C80.2695 57.608 81.7335 56.984 82.8855 55.736C84.0375 54.44 84.6135 53.048 84.6135 51.56C84.6135 50.024 84.0615 48.608 82.9575 47.312C81.8535 45.968 80.3655 45.296 78.4935 45.296C76.6215 45.296 75.1095 45.944 73.9575 47.24C72.8055 48.536 72.2295 49.976 72.2295 51.56ZM113.339 38.096C115.595 34.688 118.307 32.984 121.475 32.984C126.371 32.984 130.019 35.072 132.419 39.248C132.947 38.528 133.571 37.784 134.291 37.016C135.059 36.2 136.259 35.336 137.891 34.424C139.523 33.464 141.203 32.984 142.931 32.984C146.771 32.984 149.987 34.472 152.579 37.448C155.171 40.376 156.467 45.248 156.467 52.064V64.664C156.467 65.768 156.419 66.608 156.323 67.184C156.275 67.712 156.059 68.336 155.675 69.056C155.051 70.352 153.203 71 150.131 71C147.107 71 145.259 70.328 144.587 68.984C144.251 68.264 144.035 67.64 143.939 67.112C143.891 66.536 143.867 65.696 143.867 64.592V51.992C143.867 47.816 142.379 45.728 139.403 45.728C137.723 45.728 136.571 46.28 135.947 47.384C135.371 48.488 135.083 50.048 135.083 52.064V64.664C135.083 65.816 135.035 66.656 134.939 67.184C134.891 67.712 134.675 68.336 134.291 69.056C133.619 70.352 131.747 71 128.675 71C125.651 71 123.803 70.328 123.131 68.984C122.795 68.264 122.579 67.64 122.483 67.112C122.435 66.536 122.411 65.696 122.411 64.592V51.992C122.411 47.816 120.923 45.728 117.947 45.728C115.067 45.728 113.627 47.816 113.627 51.992V64.736C113.627 65.84 113.579 66.68 113.483 67.256C113.435 67.784 113.219 68.408 112.835 69.128C112.115 70.376 110.243 71 107.219 71C104.195 71 102.347 70.352 101.675 69.056C101.339 68.336 101.123 67.712 101.027 67.184C100.979 66.656 100.955 65.816 100.955 64.664V39.32C100.955 38.216 100.979 37.4 101.027 36.872C101.123 36.296 101.363 35.672 101.747 35C102.467 33.704 104.171 33.056 106.859 33.056C109.547 33.056 111.299 33.488 112.115 34.352C112.931 35.216 113.339 36.464 113.339 38.096ZM196.613 47.528C196.613 50.456 195.869 52.64 194.381 54.08C192.941 55.472 191.333 56.168 189.557 56.168H172.493C172.493 57.512 173.285 58.64 174.869 59.552C176.453 60.464 178.037 60.92 179.621 60.92C182.405 60.92 184.589 60.632 186.173 60.056L186.965 59.768C188.117 59.24 189.077 58.976 189.845 58.976C191.381 58.976 192.701 60.056 193.805 62.216C194.429 63.512 194.741 64.616 194.741 65.528C194.741 69.8 189.629 71.936 179.405 71.936C175.853 71.936 172.685 71.336 169.901 70.136C167.165 68.888 165.029 67.256 163.493 65.24C160.469 61.352 158.957 57.008 158.957 52.208C158.957 46.16 160.901 41.336 164.789 37.736C168.725 34.088 173.621 32.264 179.477 32.264C186.149 32.264 191.045 34.616 194.165 39.32C195.797 41.816 196.613 44.552 196.613 47.528ZM181.421 49.616C183.245 49.616 184.157 48.848 184.157 47.312C184.157 46.208 183.725 45.32 182.861 44.648C182.045 43.976 180.845 43.64 179.261 43.64C177.725 43.64 176.189 44.288 174.653 45.584C173.117 46.832 172.349 48.176 172.349 49.616H181.421ZM220.246 33.056C225.046 33.056 229.03 34.904 232.198 38.6C235.414 42.248 237.022 46.712 237.022 51.992V64.664C237.022 65.768 236.974 66.608 236.878 67.184C236.83 67.712 236.638 68.312 236.302 68.984C235.63 70.28 233.758 70.928 230.686 70.928C227.278 70.928 225.31 70.04 224.782 68.264C224.494 67.448 224.35 66.224 224.35 64.592V51.92C224.35 49.952 223.774 48.416 222.622 47.312C221.518 46.208 220.006 45.656 218.086 45.656C216.214 45.656 214.678 46.232 213.478 47.384C212.326 48.536 211.75 50.048 211.75 51.92V64.664C211.75 65.768 211.702 66.608 211.606 67.184C211.558 67.712 211.342 68.312 210.958 68.984C210.334 70.28 208.486 70.928 205.414 70.928C202.39 70.928 200.542 70.28 199.87 68.984C199.534 68.264 199.318 67.64 199.222 67.112C199.174 66.536 199.15 65.696 199.15 64.592V39.104C199.15 38.048 199.174 37.256 199.222 36.728C199.318 36.152 199.558 35.528 199.942 34.856C200.614 33.656 202.462 33.056 205.486 33.056C208.414 33.056 210.214 33.608 210.886 34.712C211.366 35.528 211.606 36.512 211.606 37.664C211.798 37.328 212.23 36.848 212.902 36.224C213.574 35.6 214.222 35.096 214.846 34.712C216.478 33.608 218.278 33.056 220.246 33.056ZM261.983 45.8L257.303 45.512V55.448C257.303 56.744 257.495 57.68 257.879 58.256C258.311 58.832 259.079 59.12 260.183 59.12C261.335 59.12 262.199 59.168 262.775 59.264C263.399 59.312 264.047 59.528 264.719 59.912C265.823 60.536 266.375 62.144 266.375 64.736C266.375 67.76 265.703 69.608 264.359 70.28C263.639 70.616 262.991 70.832 262.415 70.928C261.887 70.976 261.095 71 260.039 71C255.047 71 251.255 69.872 248.663 67.616C246.071 65.36 244.775 61.544 244.775 56.168V45.512C243.863 45.656 242.879 45.728 241.823 45.728C240.767 45.728 239.879 45.32 239.159 44.504C238.487 43.688 238.151 42.296 238.151 40.328C238.151 38.36 238.271 36.944 238.511 36.08C238.751 35.168 239.087 34.52 239.519 34.136C240.287 33.512 241.247 33.2 242.399 33.2L244.775 33.488V26.072C244.775 24.968 244.799 24.152 244.847 23.624C244.943 23.096 245.183 22.52 245.567 21.896C246.191 20.696 248.039 20.096 251.111 20.096C254.375 20.096 256.319 20.984 256.943 22.76C257.183 23.528 257.303 24.752 257.303 26.432V33.488C259.415 33.296 260.999 33.2 262.055 33.2C263.159 33.2 263.975 33.248 264.503 33.344C265.079 33.392 265.727 33.608 266.447 33.992C267.695 34.616 268.319 36.464 268.319 39.536C268.319 42.56 267.671 44.408 266.375 45.08C265.655 45.416 265.007 45.632 264.431 45.728C263.903 45.776 263.087 45.8 261.983 45.8Z" fill="#050517"/>
<circle cx="52" cy="15" r="15" fill="url(#paint0_linear)"/>
<defs>
<linearGradient id="paint0_linear" x1="55" y1="3.57629e-08" x2="48" y2="32" gradientUnits="userSpaceOnUse">
<stop stop-color="#206AD8"/>
<stop offset="1" stop-color="#1B1B3A"/>
</linearGradient>
</defs>
</svg>
